Coordinates
version=1
nRows=20
nColumns=23
inDegrees=yes

Units are S.I. units (second, meters, Newtons, ...)
If the header above contains a line with 'inDegrees', this indicates whether rotational values are in degrees (yes) or radians (no).

endheader
time	pelvis_tilt	pelvis_list	pelvis_rotation	pelvis_tx	pelvis_ty	pelvis_tz	hip_flexion_r	hip_adduction_r	hip_rotation_r	knee_angle_r	knee_angle_r_beta	ankle_angle_r	subtalar_angle_r	mtp_angle_r	hip_flexion_l	hip_adduction_l	hip_rotation_l	knee_angle_l	knee_angle_l_beta	ankle_angle_l	subtalar_angle_l	mtp_angle_l
     22.50000000	    -12.64928424	      1.41856378	      4.06945128	      2.09763138	      0.97615672	      0.97802241	     37.30552689	     -4.59987719	     -4.42111051	     99.20266682	      1.73141316	      6.59370650	     -0.08585725	      0.00000000	     18.89404960	      2.08638691	     -2.98234339	     39.25781994	      0.68517822	     26.27529409	      5.35492249	      0.00000000
     22.50666667	    -12.55308060	      1.07981372	      3.92489936	      2.09865214	      0.98111379	      0.97839980	     38.11411436	     -4.28557951	     -4.83184376	     97.21329824	      1.69669213	      6.93336242	     -0.26921360	      0.00000000	     16.82116298	      1.54942866	     -3.26965053	     37.34580858	      0.65180732	     25.25279339	      6.21845250	      0.00000000
     22.51333333	    -12.67514971	      0.76523624	      3.75391245	      2.09975107	      0.98599629	      0.97876799	     39.06197000	     -3.99222809	     -5.22705873	     95.02644921	      1.65852442	      7.21896105	     -0.56793301	      0.00000000	     14.98032318	      1.06634007	     -3.61614338	     35.37026345	      0.61732755	     23.80547026	      6.95277278	      0.00000000
     22.52000000	    -12.37018262	      0.46910451	      3.57532665	      2.10139079	      0.99168918	      0.97906950	     39.34139246	     -3.69312321	     -5.66696115	     92.52908240	      1.61493714	      7.51776538	     -0.99691233	      0.00000000	     12.58145992	      0.60557977	     -3.97536194	     33.17903962	      0.57908348	     22.15064860	      7.60767999	      0.00000000
     22.52666667	    -12.30354407	      0.16740407	      3.38175324	      2.10305918	      0.99710008	      0.97942040	     39.78258980	     -3.38067932	     -6.10378718	     89.86053426	      1.56836219	      7.77853332	     -1.55207925	      0.00000000	     10.49234520	      0.15391435	     -4.42748077	     31.03051984	      0.54158474	     20.14522350	      8.28715531	      0.00000000
     22.53333333	    -12.10641765	     -0.14373101	      3.20431358	      2.10498693	      1.00268538	      0.97972128	     39.93122675	     -3.06360430	     -6.59510323	     86.97086287	      1.51792791	      8.05017618	     -2.18624294	      0.00000000	      8.27066591	     -0.28518957	     -4.86779388	     28.84044021	      0.50336064	     17.89491951	      8.87687893	      0.00000000
     22.54000000	    -11.82023565	     -0.45920253	      3.05132238	      2.10709439	      1.00835496	      0.97997700	     39.84665640	     -2.74714271	     -7.13443768	     83.88072025	      1.46399475	      8.35503905	     -2.86831624	      0.00000000	      5.96983263	     -0.68035228	     -5.19053678	     26.62648460	      0.46471982	     15.46843600	      9.28435703	      0.00000000
     22.54666667	    -11.64168413	     -0.75560077	      2.89547895	      2.10924331	      1.01372535	      0.98024806	     39.77229035	     -2.43764969	     -7.66580927	     80.63165136	      1.40728780	      8.63044366	     -3.63877084	      0.00000000	      3.86121866	     -1.04340820	     -5.54258853	     24.50998068	      0.42777986	     12.85781632	      9.62310157	      0.00000000
     22.55333333	    -11.43529090	     -1.06658423	      2.76197790	      2.11144338	      1.01894766	      0.98056425	     39.55994534	     -2.08421665	     -8.20322712	     77.21330590	      1.34762641	      8.88327509	     -4.43520529	      0.00000000	      1.79785740	     -1.39763089	     -5.76689678	     22.48841683	      0.39249692	     10.14365716	      9.81915759	      0.00000000
     22.56000000	    -11.44363843	     -1.38947945	      2.71937228	      2.11357472	      1.02362136	      0.98083474	     39.47441955	     -1.81423952	     -8.88250110	     73.66450385	      1.28568813	      9.15111054	     -5.13748720	      0.00000000	      0.15562184	     -1.78681131	     -5.97310425	     20.79588024	      0.36295658	      7.37906117	      9.98340892	      0.00000000
     22.56666667	    -11.18773592	     -1.68523026	      2.66226143	      2.11583917	      1.02845545	      0.98116924	     38.98922911	     -1.44278462	     -9.42739590	     69.91659518	      1.22027479	      9.33991834	     -6.00050944	      0.00000000	     -1.77457021	     -2.11268436	     -5.97058736	     19.07935445	      0.33299755	      4.72086751	      9.80955571	      0.00000000
     22.57333333	    -10.92251853	     -1.94840631	      2.62255537	      2.11810896	      1.03302196	      0.98157746	     38.40069653	     -1.05950616	     -9.92492776	     66.02373480	      1.15233156	      9.55703514	     -6.81499552	      0.00000000	     -3.64657910	     -2.36401859	     -5.61508195	     17.50005456	      0.30543357	      2.25275232	      9.16737242	      0.00000000
     22.58000000	    -10.88766324	     -2.16030344	      2.64012166	      2.12020222	      1.03691706	      0.98193349	     37.99409820	     -0.77113620	    -10.44869850	     62.04806536	      1.08294303	      9.76993339	     -7.39050349	      0.00000000	     -5.08982005	     -2.57273994	     -5.11477296	     16.29014670	      0.28431670	     -0.13812361	      8.15648123	      0.00000000
     22.58666667	    -10.89758584	     -2.42633440	      2.68073887	      2.12219881	      1.04034645	      0.98241079	     37.54639050	     -0.39016763	    -10.96910619	     57.91960112	      1.01088774	      9.91967905	     -7.91672048	      0.00000000	     -6.17621093	     -2.96783531	     -5.06945327	     15.75443210	      0.27496671	     -1.93761394	      7.64356345	      0.00000000
     22.59333333	    -10.94728468	     -2.59177225	      2.70185622	      2.12411726	      1.04330466	      0.98288845	     37.08101108	     -0.04569835	    -11.33923438	     53.71323350	      0.93747278	     10.07659673	     -8.28841294	      0.00000000	     -7.13637512	     -3.21745839	     -4.81327017	     15.45497109	      0.26974013	     -3.60401290	      6.58124028	      0.00000000
     22.60000000	    -11.37793932	     -2.69913424	      2.72975165	      2.12576719	      1.04525412	      0.98342410	     36.99829073	      0.21479387	    -11.69535892	     49.52681087	      0.86440592	     10.48942235	     -7.98484384	      0.00000000	     -7.34235021	     -3.48983207	     -4.94440704	     15.93720005	      0.27815661	     -4.66103878	      5.97370539	      0.00000000
     22.60666667	    -11.19812936	     -2.86562247	      2.80883975	      2.12757949	      1.04757226	      0.98389548	     36.09761485	      0.64612676	    -11.92707371	     45.06770618	      0.78657986	     10.40546560	     -8.23959053	      0.00000000	     -8.17212287	     -3.80917165	     -4.81235467	     16.55365847	      0.28891584	     -5.52926521	      4.48108834	      0.00000000
     22.61333333	    -11.46767101	     -2.92031261	      2.83869787	      2.12907186	      1.04866478	      0.98443927	     35.70066379	      0.92382357	    -12.14130458	     40.77109336	      0.71158982	     10.66465207	     -7.54859644	      0.00000000	     -8.21540007	     -4.05714935	     -4.99209665	     17.89403749	      0.31230987	     -5.95248487	      3.29170582	      0.00000000
     22.62000000	    -11.55416463	     -2.94988260	      2.94206947	      2.13058452	      1.04947312	      0.98494827	     35.01407849	      1.19758303	    -12.29176020	     36.42451294	      0.63572768	     10.76033368	     -6.90550381	      0.00000000	     -8.34523918	     -4.29673836	     -5.05251149	     19.52498806	      0.34077533	     -6.03140861	      1.92490120	      0.00000000
     22.62666667	    -11.74540353	     -2.89382200	      2.92240957	      2.13197716	      1.04950253	      0.98565929	     34.44820499	      1.46962989	    -12.19512485	     32.23967813	      0.56268853	     10.96283011	     -5.86320405	      0.00000000	     -8.26388537	     -4.43995693	     -5.21983093	     21.47846629	      0.37486996	     -5.95801931	      0.45004854	      0.00000000
